<svg width="690" height="933" viewBox="0 0 690 933" fill="none" xmlns="http://www.w3.org/2000/svg">
<path d="M169 856V27C351.5 34.3333 639.6 126 332 434C24.4001 742 6.50011 523 36.0001 375M332 745V286C425.833 305.667 566.1 392.4 376.5 582C530.1 748 632.833 868.167 665 907.5" stroke="#C2C7EB" stroke-width="50" stroke-linecap="round"/>
<rect x="90" y="308" width="485" height="120" fill="#091353"/>
<path d="M136.24 357.44C136.24 360.427 135.52 363.227 134.08 365.84C132.693 368.453 130.48 370.56 127.44 372.16C124.453 373.76 120.667 374.56 116.08 374.56H106.72V396H95.52V340.16H116.08C120.4 340.16 124.08 340.907 127.12 342.4C130.16 343.893 132.427 345.947 133.92 348.56C135.467 351.173 136.24 354.133 136.24 357.44ZM115.6 365.52C118.693 365.52 120.987 364.827 122.48 363.44C123.973 362 124.72 360 124.72 357.44C124.72 352 121.68 349.28 115.6 349.28H106.72V365.52H115.6ZM175.392 358.56C176.832 356.213 178.699 354.373 180.992 353.04C183.339 351.707 186.005 351.04 188.992 351.04V362.8H186.032C182.512 362.8 179.845 363.627 178.032 365.28C176.272 366.933 175.392 369.813 175.392 373.92V396H164.192V351.68H175.392V358.56ZM236.216 396.72C231.949 396.72 228.109 395.787 224.696 393.92C221.282 392 218.589 389.307 216.616 385.84C214.696 382.373 213.736 378.373 213.736 373.84C213.736 369.307 214.722 365.307 216.696 361.84C218.722 358.373 221.469 355.707 224.936 353.84C228.402 351.92 232.269 350.96 236.536 350.96C240.802 350.96 244.669 351.92 248.136 353.84C251.602 355.707 254.322 358.373 256.296 361.84C258.322 365.307 259.336 369.307 259.336 373.84C259.336 378.373 258.296 382.373 256.216 385.84C254.189 389.307 251.416 392 247.896 393.92C244.429 395.787 240.536 396.72 236.216 396.72ZM236.216 386.96C238.242 386.96 240.136 386.48 241.896 385.52C243.709 384.507 245.149 383.013 246.216 381.04C247.282 379.067 247.816 376.667 247.816 373.84C247.816 369.627 246.696 366.4 244.456 364.16C242.269 361.867 239.576 360.72 236.376 360.72C233.176 360.72 230.482 361.867 228.296 364.16C226.162 366.4 225.096 369.627 225.096 373.84C225.096 378.053 226.136 381.307 228.216 383.6C230.349 385.84 233.016 386.96 236.216 386.96ZM304.511 396.72C300.885 396.72 297.631 396.08 294.751 394.8C291.871 393.467 289.578 391.68 287.871 389.44C286.218 387.2 285.311 384.72 285.151 382H296.431C296.645 383.707 297.471 385.12 298.911 386.24C300.405 387.36 302.245 387.92 304.431 387.92C306.565 387.92 308.218 387.493 309.391 386.64C310.618 385.787 311.231 384.693 311.231 383.36C311.231 381.92 310.485 380.853 308.991 380.16C307.551 379.413 305.231 378.613 302.031 377.76C298.725 376.96 296.005 376.133 293.871 375.28C291.791 374.427 289.978 373.12 288.431 371.36C286.938 369.6 286.191 367.227 286.191 364.24C286.191 361.787 286.885 359.547 288.271 357.52C289.711 355.493 291.738 353.893 294.351 352.72C297.018 351.547 300.138 350.96 303.711 350.96C308.991 350.96 313.205 352.293 316.351 354.96C319.498 357.573 321.231 361.12 321.551 365.6H310.831C310.671 363.84 309.925 362.453 308.591 361.44C307.311 360.373 305.578 359.84 303.391 359.84C301.365 359.84 299.791 360.213 298.671 360.96C297.605 361.707 297.071 362.747 297.071 364.08C297.071 365.573 297.818 366.72 299.311 367.52C300.805 368.267 303.125 369.04 306.271 369.84C309.471 370.64 312.111 371.467 314.191 372.32C316.271 373.173 318.058 374.507 319.551 376.32C321.098 378.08 321.898 380.427 321.951 383.36C321.951 385.92 321.231 388.213 319.791 390.24C318.405 392.267 316.378 393.867 313.711 395.04C311.098 396.16 308.031 396.72 304.511 396.72ZM364.185 360.88V382.32C364.185 383.813 364.532 384.907 365.225 385.6C365.972 386.24 367.198 386.56 368.905 386.56H374.105V396H367.065C357.625 396 352.905 391.413 352.905 382.24V360.88H347.625V351.68H352.905V340.72H364.185V351.68H374.105V360.88H364.185ZM399.281 373.68C399.281 369.2 400.161 365.227 401.921 361.76C403.734 358.293 406.161 355.627 409.201 353.76C412.294 351.893 415.734 350.96 419.521 350.96C422.827 350.96 425.707 351.627 428.161 352.96C430.667 354.293 432.667 355.973 434.161 358V351.68H445.441V396H434.161V389.52C432.721 391.6 430.721 393.333 428.161 394.72C425.654 396.053 422.747 396.72 419.441 396.72C415.707 396.72 412.294 395.76 409.201 393.84C406.161 391.92 403.734 389.227 401.921 385.76C400.161 382.24 399.281 378.213 399.281 373.68ZM434.161 373.84C434.161 371.12 433.627 368.8 432.561 366.88C431.494 364.907 430.054 363.413 428.241 362.4C426.427 361.333 424.481 360.8 422.401 360.8C420.321 360.8 418.401 361.307 416.641 362.32C414.881 363.333 413.441 364.827 412.321 366.8C411.254 368.72 410.721 371.013 410.721 373.68C410.721 376.347 411.254 378.693 412.321 380.72C413.441 382.693 414.881 384.213 416.641 385.28C418.454 386.347 420.374 386.88 422.401 386.88C424.481 386.88 426.427 386.373 428.241 385.36C430.054 384.293 431.494 382.8 432.561 380.88C433.627 378.907 434.161 376.56 434.161 373.84ZM500.939 351.04C506.219 351.04 510.486 352.72 513.739 356.08C516.993 359.387 518.619 364.027 518.619 370V396H507.419V371.52C507.419 368 506.539 365.307 504.779 363.44C503.019 361.52 500.619 360.56 497.579 360.56C494.486 360.56 492.033 361.52 490.219 363.44C488.459 365.307 487.579 368 487.579 371.52V396H476.379V351.68H487.579V357.2C489.073 355.28 490.966 353.787 493.259 352.72C495.606 351.6 498.166 351.04 500.939 351.04ZM562.31 360.88V382.32C562.31 383.813 562.657 384.907 563.35 385.6C564.097 386.24 565.323 386.56 567.03 386.56H572.23V396H565.19C555.75 396 551.03 391.413 551.03 382.24V360.88H545.75V351.68H551.03V340.72H562.31V351.68H572.23V360.88H562.31Z" fill="#C2C7EB"/>
</svg>
